<mxfile host="app.diagrams.net" agent="Mozilla/5.0 (Windows NT 10.0; Win64; x64) AppleWebKit/537.36 (KHTML, like Gecko) Chrome/138.0.0.0 Safari/537.36 SberBrowser/30.0.0.0" version="28.1.0">
  <diagram name="Страница — 1" id="FdrjbKADJGY1u3tTIWQw">
    <mxGraphModel dx="1416" dy="645" grid="1" gridSize="10" guides="1" tooltips="1" connect="1" arrows="1" fold="1" page="0" pageScale="1" pageWidth="827" pageHeight="1169" math="0" shadow="0">
      <root>
        <mxCell id="0" />
        <mxCell id="1" parent="0" />
        <mxCell id="_0isalq4gBAh9B2EabAM-83" value="" style="rounded=1;whiteSpace=wrap;html=1;" vertex="1" parent="1">
          <mxGeometry x="400" y="275" width="150" height="60" as="geometry" />
        </mxCell>
        <mxCell id="_0isalq4gBAh9B2EabAM-51" value="" style="rounded=1;whiteSpace=wrap;html=1;" vertex="1" parent="1">
          <mxGeometry x="180" y="460" width="150" height="60" as="geometry" />
        </mxCell>
        <mxCell id="_0isalq4gBAh9B2EabAM-1" value="Аптека" style="text;html=1;align=center;verticalAlign=middle;whiteSpace=wrap;rounded=0;fontSize=23;" vertex="1" parent="1">
          <mxGeometry x="280" y="40" width="130" height="30" as="geometry" />
        </mxCell>
        <mxCell id="_0isalq4gBAh9B2EabAM-4" value="N" style="edgeStyle=orthogonalEdgeStyle;rounded=0;orthogonalLoop=1;jettySize=auto;html=1;endArrow=none;endFill=0;" edge="1" parent="1" source="_0isalq4gBAh9B2EabAM-5" target="_0isalq4gBAh9B2EabAM-83">
          <mxGeometry relative="1" as="geometry">
            <Array as="points" />
          </mxGeometry>
        </mxCell>
        <mxCell id="_0isalq4gBAh9B2EabAM-5" value="Лекарство" style="rounded=1;whiteSpace=wrap;html=1;" vertex="1" parent="1">
          <mxGeometry x="180" y="280" width="150" height="50" as="geometry" />
        </mxCell>
        <mxCell id="_0isalq4gBAh9B2EabAM-6" value="Поставляет" style="rhombus;whiteSpace=wrap;html=1;" vertex="1" parent="1">
          <mxGeometry x="400" y="275" width="150" height="60" as="geometry" />
        </mxCell>
        <mxCell id="_0isalq4gBAh9B2EabAM-7" value="" style="edgeStyle=orthogonalEdgeStyle;rounded=0;orthogonalLoop=1;jettySize=auto;html=1;endArrow=none;endFill=0;" edge="1" parent="1" source="_0isalq4gBAh9B2EabAM-8" target="_0isalq4gBAh9B2EabAM-5">
          <mxGeometry relative="1" as="geometry">
            <Array as="points">
              <mxPoint x="140" y="260" />
              <mxPoint x="140" y="305" />
            </Array>
          </mxGeometry>
        </mxCell>
        <mxCell id="_0isalq4gBAh9B2EabAM-8" value="Id" style="ellipse;whiteSpace=wrap;html=1;fontStyle=4" vertex="1" parent="1">
          <mxGeometry x="-10" y="240" width="120" height="40" as="geometry" />
        </mxCell>
        <mxCell id="_0isalq4gBAh9B2EabAM-9" value="" style="edgeStyle=orthogonalEdgeStyle;rounded=0;orthogonalLoop=1;jettySize=auto;html=1;endArrow=none;endFill=0;" edge="1" parent="1" source="_0isalq4gBAh9B2EabAM-10" target="_0isalq4gBAh9B2EabAM-5">
          <mxGeometry relative="1" as="geometry">
            <Array as="points">
              <mxPoint x="140" y="290" />
              <mxPoint x="140" y="305" />
            </Array>
          </mxGeometry>
        </mxCell>
        <mxCell id="_0isalq4gBAh9B2EabAM-10" value="Наименование" style="ellipse;whiteSpace=wrap;html=1;fontStyle=0" vertex="1" parent="1">
          <mxGeometry x="-10" y="270" width="120" height="40" as="geometry" />
        </mxCell>
        <mxCell id="_0isalq4gBAh9B2EabAM-11" value="" style="edgeStyle=orthogonalEdgeStyle;rounded=0;orthogonalLoop=1;jettySize=auto;html=1;endArrow=none;endFill=0;" edge="1" parent="1" source="_0isalq4gBAh9B2EabAM-12" target="_0isalq4gBAh9B2EabAM-5">
          <mxGeometry relative="1" as="geometry">
            <Array as="points">
              <mxPoint x="140" y="320" />
              <mxPoint x="140" y="305" />
            </Array>
          </mxGeometry>
        </mxCell>
        <mxCell id="_0isalq4gBAh9B2EabAM-12" value="Производитель" style="ellipse;whiteSpace=wrap;html=1;fontStyle=0" vertex="1" parent="1">
          <mxGeometry x="-10" y="300" width="120" height="40" as="geometry" />
        </mxCell>
        <mxCell id="_0isalq4gBAh9B2EabAM-13" value="" style="edgeStyle=orthogonalEdgeStyle;rounded=0;orthogonalLoop=1;jettySize=auto;html=1;endArrow=none;endFill=0;" edge="1" parent="1" source="_0isalq4gBAh9B2EabAM-14" target="_0isalq4gBAh9B2EabAM-5">
          <mxGeometry relative="1" as="geometry">
            <Array as="points">
              <mxPoint x="140" y="350" />
              <mxPoint x="140" y="305" />
            </Array>
          </mxGeometry>
        </mxCell>
        <mxCell id="_0isalq4gBAh9B2EabAM-14" value="Поставщик" style="ellipse;whiteSpace=wrap;html=1;fontStyle=0" vertex="1" parent="1">
          <mxGeometry x="-10" y="330" width="120" height="40" as="geometry" />
        </mxCell>
        <mxCell id="_0isalq4gBAh9B2EabAM-15" value="Тип" style="ellipse;whiteSpace=wrap;html=1;fontStyle=0" vertex="1" parent="1">
          <mxGeometry x="-10" y="360" width="120" height="40" as="geometry" />
        </mxCell>
        <mxCell id="_0isalq4gBAh9B2EabAM-16" value="Цена" style="ellipse;whiteSpace=wrap;html=1;fontStyle=0" vertex="1" parent="1">
          <mxGeometry x="-10" y="390" width="120" height="40" as="geometry" />
        </mxCell>
        <mxCell id="_0isalq4gBAh9B2EabAM-17" value="" style="edgeStyle=orthogonalEdgeStyle;rounded=0;orthogonalLoop=1;jettySize=auto;html=1;endArrow=none;endFill=0;" edge="1" parent="1" source="_0isalq4gBAh9B2EabAM-18" target="_0isalq4gBAh9B2EabAM-5">
          <mxGeometry relative="1" as="geometry">
            <Array as="points">
              <mxPoint x="140" y="440" />
              <mxPoint x="140" y="305" />
            </Array>
          </mxGeometry>
        </mxCell>
        <mxCell id="_0isalq4gBAh9B2EabAM-18" value="Возможна ли продажа без рецепта" style="ellipse;whiteSpace=wrap;html=1;fontStyle=0" vertex="1" parent="1">
          <mxGeometry x="-10" y="420" width="120" height="40" as="geometry" />
        </mxCell>
        <mxCell id="_0isalq4gBAh9B2EabAM-19" value="" style="rounded=0;orthogonalLoop=1;jettySize=auto;html=1;endArrow=none;endFill=0;edgeStyle=orthogonalEdgeStyle;" edge="1" parent="1" source="_0isalq4gBAh9B2EabAM-15" target="_0isalq4gBAh9B2EabAM-5">
          <mxGeometry relative="1" as="geometry">
            <mxPoint x="130" y="415" as="sourcePoint" />
            <mxPoint x="200" y="370" as="targetPoint" />
            <Array as="points">
              <mxPoint x="140" y="380" />
              <mxPoint x="140" y="305" />
            </Array>
          </mxGeometry>
        </mxCell>
        <mxCell id="_0isalq4gBAh9B2EabAM-20" value="" style="rounded=0;orthogonalLoop=1;jettySize=auto;html=1;endArrow=none;endFill=0;edgeStyle=orthogonalEdgeStyle;" edge="1" parent="1" source="_0isalq4gBAh9B2EabAM-16" target="_0isalq4gBAh9B2EabAM-5">
          <mxGeometry relative="1" as="geometry">
            <mxPoint x="50" y="392.5" as="sourcePoint" />
            <mxPoint x="180" y="332.5" as="targetPoint" />
            <Array as="points">
              <mxPoint x="140" y="408" />
              <mxPoint x="140" y="305" />
            </Array>
          </mxGeometry>
        </mxCell>
        <mxCell id="_0isalq4gBAh9B2EabAM-21" value="N&lt;span style=&quot;color: rgba(0, 0, 0, 0); font-family: monospace; font-size: 0px; text-align: start; background-color: rgb(236, 236, 236);&quot;&gt;%3CmxGraphModel%3E%3Croot%3E%3CmxCell%20id%3D%220%22%2F%3E%3CmxCell%20id%3D%221%22%20parent%3D%220%22%2F%3E%3CmxCell%20id%3D%222%22%20value%3D%22%D0%9B%D0%B5%D0%BA%D0%B0%D1%80%D1%81%D1%82%D0%B2%D0%BE%22%20style%3D%22rounded%3D1%3BwhiteSpace%3Dwrap%3Bhtml%3D1%3B%22%20vertex%3D%221%22%20parent%3D%221%22%3E%3CmxGeometry%20x%3D%22180%22%20y%3D%22280%22%20width%3D%22150%22%20height%3D%2250%22%20as%3D%22geometry%22%2F%3E%3C%2FmxCell%3E%3C%2Froot%3E%3C%2FmxGraphModel%3E&lt;/span&gt;&lt;span style=&quot;color: rgba(0, 0, 0, 0); font-family: monospace; font-size: 0px; text-align: start; background-color: rgb(236, 236, 236);&quot;&gt;%3CmxGraphModel%3E%3Croot%3E%3CmxCell%20id%3D%220%22%2F%3E%3CmxCell%20id%3D%221%22%20parent%3D%220%22%2F%3E%3CmxCell%20id%3D%222%22%20value%3D%22%D0%9B%D0%B5%D0%BA%D0%B0%D1%80%D1%81%D1%82%D0%B2%D0%BE%22%20style%3D%22rounded%3D1%3BwhiteSpace%3Dwrap%3Bhtml%3D1%3B%22%20vertex%3D%221%22%20parent%3D%221%22%3E%3CmxGeometry%20x%3D%22180%22%20y%3D%22280%22%20width%3D%22150%22%20height%3D%2250%22%20as%3D%22geometry%22%2F%3E%3C%2FmxCell%3E%3C%2Froot%3E%3C%2FmxGraphModel%3E&lt;/span&gt;&lt;span style=&quot;color: rgba(0, 0, 0, 0); font-family: monospace; font-size: 0px; text-align: start; background-color: rgb(236, 236, 236);&quot;&gt;%3CmxGraphModel%3E%3Croot%3E%3CmxCell%20id%3D%220%22%2F%3E%3CmxCell%20id%3D%221%22%20parent%3D%220%22%2F%3E%3CmxCell%20id%3D%222%22%20value%3D%22%D0%9B%D0%B5%D0%BA%D0%B0%D1%80%D1%81%D1%82%D0%B2%D0%BE%22%20style%3D%22rounded%3D1%3BwhiteSpace%3Dwrap%3Bhtml%3D1%3B%22%20vertex%3D%221%22%20parent%3D%221%22%3E%3CmxGeometry%20x%3D%22180%22%20y%3D%22280%22%20width%3D%22150%22%20height%3D%2250%22%20as%3D%22geometry%22%2F%3E%3C%2FmxCell%3E%3C%2Froot%3E%3C%2FmxGraphModel%3E&lt;/span&gt;" style="edgeStyle=orthogonalEdgeStyle;rounded=0;orthogonalLoop=1;jettySize=auto;html=1;endArrow=none;endFill=0;" edge="1" parent="1" source="_0isalq4gBAh9B2EabAM-22" target="_0isalq4gBAh9B2EabAM-23">
          <mxGeometry relative="1" as="geometry" />
        </mxCell>
        <mxCell id="_0isalq4gBAh9B2EabAM-22" value="Покупатель" style="rounded=1;whiteSpace=wrap;html=1;" vertex="1" parent="1">
          <mxGeometry x="180" y="620" width="150" height="50" as="geometry" />
        </mxCell>
        <mxCell id="_0isalq4gBAh9B2EabAM-23" value="Покупает" style="rhombus;whiteSpace=wrap;html=1;" vertex="1" parent="1">
          <mxGeometry x="180" y="460" width="150" height="60" as="geometry" />
        </mxCell>
        <mxCell id="_0isalq4gBAh9B2EabAM-24" value="" style="edgeStyle=orthogonalEdgeStyle;rounded=0;orthogonalLoop=1;jettySize=auto;html=1;endArrow=none;endFill=0;" edge="1" parent="1" source="_0isalq4gBAh9B2EabAM-25" target="_0isalq4gBAh9B2EabAM-22">
          <mxGeometry relative="1" as="geometry">
            <Array as="points">
              <mxPoint x="140" y="600" />
              <mxPoint x="140" y="645" />
            </Array>
          </mxGeometry>
        </mxCell>
        <mxCell id="_0isalq4gBAh9B2EabAM-25" value="Id" style="ellipse;whiteSpace=wrap;html=1;fontStyle=4" vertex="1" parent="1">
          <mxGeometry x="-10" y="580" width="120" height="40" as="geometry" />
        </mxCell>
        <mxCell id="_0isalq4gBAh9B2EabAM-26" value="" style="edgeStyle=orthogonalEdgeStyle;rounded=0;orthogonalLoop=1;jettySize=auto;html=1;endArrow=none;endFill=0;" edge="1" parent="1" source="_0isalq4gBAh9B2EabAM-27" target="_0isalq4gBAh9B2EabAM-22">
          <mxGeometry relative="1" as="geometry">
            <Array as="points">
              <mxPoint x="140" y="630" />
              <mxPoint x="140" y="645" />
            </Array>
          </mxGeometry>
        </mxCell>
        <mxCell id="_0isalq4gBAh9B2EabAM-27" value="ФИО" style="ellipse;whiteSpace=wrap;html=1;fontStyle=0" vertex="1" parent="1">
          <mxGeometry x="-10" y="610" width="120" height="40" as="geometry" />
        </mxCell>
        <mxCell id="_0isalq4gBAh9B2EabAM-28" value="" style="edgeStyle=orthogonalEdgeStyle;rounded=0;orthogonalLoop=1;jettySize=auto;html=1;endArrow=none;endFill=0;" edge="1" parent="1" source="_0isalq4gBAh9B2EabAM-29" target="_0isalq4gBAh9B2EabAM-22">
          <mxGeometry relative="1" as="geometry">
            <Array as="points">
              <mxPoint x="140" y="660" />
              <mxPoint x="140" y="645" />
            </Array>
          </mxGeometry>
        </mxCell>
        <mxCell id="_0isalq4gBAh9B2EabAM-29" value="Телефон" style="ellipse;whiteSpace=wrap;html=1;fontStyle=0" vertex="1" parent="1">
          <mxGeometry x="-10" y="640" width="120" height="40" as="geometry" />
        </mxCell>
        <mxCell id="_0isalq4gBAh9B2EabAM-38" value="Поставщик" style="rounded=1;whiteSpace=wrap;html=1;" vertex="1" parent="1">
          <mxGeometry x="570" y="205" width="150" height="50" as="geometry" />
        </mxCell>
        <mxCell id="_0isalq4gBAh9B2EabAM-40" value="Id" style="ellipse;whiteSpace=wrap;html=1;fontStyle=4" vertex="1" parent="1">
          <mxGeometry x="710" y="65" width="120" height="40" as="geometry" />
        </mxCell>
        <mxCell id="_0isalq4gBAh9B2EabAM-43" value="Наименование" style="ellipse;whiteSpace=wrap;html=1;fontStyle=0" vertex="1" parent="1">
          <mxGeometry x="710" y="95" width="120" height="40" as="geometry" />
        </mxCell>
        <mxCell id="_0isalq4gBAh9B2EabAM-41" value="Адрес" style="ellipse;whiteSpace=wrap;html=1;fontStyle=0" vertex="1" parent="1">
          <mxGeometry x="710" y="125" width="120" height="40" as="geometry" />
        </mxCell>
        <mxCell id="_0isalq4gBAh9B2EabAM-42" value="" style="edgeStyle=orthogonalEdgeStyle;rounded=0;orthogonalLoop=1;jettySize=auto;html=1;endArrow=none;endFill=0;" edge="1" parent="1" source="_0isalq4gBAh9B2EabAM-43" target="_0isalq4gBAh9B2EabAM-38">
          <mxGeometry relative="1" as="geometry">
            <Array as="points">
              <mxPoint x="645" y="115" />
            </Array>
          </mxGeometry>
        </mxCell>
        <mxCell id="_0isalq4gBAh9B2EabAM-44" value="" style="rounded=0;orthogonalLoop=1;jettySize=auto;html=1;endArrow=none;endFill=0;edgeStyle=orthogonalEdgeStyle;" edge="1" parent="1" source="_0isalq4gBAh9B2EabAM-41" target="_0isalq4gBAh9B2EabAM-38">
          <mxGeometry relative="1" as="geometry">
            <mxPoint x="610" y="135" as="sourcePoint" />
            <mxPoint x="655" y="195" as="targetPoint" />
            <Array as="points">
              <mxPoint x="645" y="145" />
            </Array>
          </mxGeometry>
        </mxCell>
        <mxCell id="_0isalq4gBAh9B2EabAM-45" value="" style="rounded=0;orthogonalLoop=1;jettySize=auto;html=1;endArrow=none;endFill=0;edgeStyle=orthogonalEdgeStyle;" edge="1" parent="1" source="_0isalq4gBAh9B2EabAM-40" target="_0isalq4gBAh9B2EabAM-38">
          <mxGeometry relative="1" as="geometry">
            <mxPoint x="660" y="145" as="sourcePoint" />
            <mxPoint x="705" y="235" as="targetPoint" />
            <Array as="points">
              <mxPoint x="645" y="85" />
            </Array>
          </mxGeometry>
        </mxCell>
        <mxCell id="_0isalq4gBAh9B2EabAM-46" value="ИНН" style="ellipse;whiteSpace=wrap;html=1;fontStyle=0" vertex="1" parent="1">
          <mxGeometry x="710" y="155" width="120" height="40" as="geometry" />
        </mxCell>
        <mxCell id="_0isalq4gBAh9B2EabAM-47" value="" style="edgeStyle=orthogonalEdgeStyle;rounded=0;orthogonalLoop=1;jettySize=auto;html=1;endArrow=none;endFill=0;" edge="1" parent="1" source="_0isalq4gBAh9B2EabAM-46" target="_0isalq4gBAh9B2EabAM-38">
          <mxGeometry relative="1" as="geometry">
            <Array as="points">
              <mxPoint x="645" y="175" />
            </Array>
            <mxPoint x="610" y="135" as="sourcePoint" />
            <mxPoint x="655" y="195" as="targetPoint" />
          </mxGeometry>
        </mxCell>
        <mxCell id="_0isalq4gBAh9B2EabAM-50" value="N" style="edgeStyle=orthogonalEdgeStyle;rounded=0;orthogonalLoop=1;jettySize=auto;html=1;endArrow=none;endFill=0;" edge="1" parent="1" source="_0isalq4gBAh9B2EabAM-6" target="_0isalq4gBAh9B2EabAM-38">
          <mxGeometry relative="1" as="geometry">
            <mxPoint x="360" y="310" as="sourcePoint" />
            <mxPoint x="420" y="365" as="targetPoint" />
          </mxGeometry>
        </mxCell>
        <mxCell id="_0isalq4gBAh9B2EabAM-52" value="N&lt;span style=&quot;color: rgba(0, 0, 0, 0); font-family: monospace; font-size: 0px; text-align: start; background-color: rgb(236, 236, 236);&quot;&gt;%3CmxGraphModel%3E%3Croot%3E%3CmxCell%20id%3D%220%22%2F%3E%3CmxCell%20id%3D%221%22%20parent%3D%220%22%2F%3E%3CmxCell%20id%3D%222%22%20value%3D%22%D0%9B%D0%B5%D0%BA%D0%B0%D1%80%D1%81%D1%82%D0%B2%D0%BE%22%20style%3D%22rounded%3D1%3BwhiteSpace%3Dwrap%3Bhtml%3D1%3B%22%20vertex%3D%221%22%20parent%3D%221%22%3E%3CmxGeometry%20x%3D%22180%22%20y%3D%22280%22%20width%3D%22150%22%20height%3D%2250%22%20as%3D%22geometry%22%2F%3E%3C%2FmxCell%3E%3C%2Froot%3E%3C%2FmxGraphModel%3E&lt;/span&gt;&lt;span style=&quot;color: rgba(0, 0, 0, 0); font-family: monospace; font-size: 0px; text-align: start; background-color: rgb(236, 236, 236);&quot;&gt;%3CmxGraphModel%3E%3Croot%3E%3CmxCell%20id%3D%220%22%2F%3E%3CmxCell%20id%3D%221%22%20parent%3D%220%22%2F%3E%3CmxCell%20id%3D%222%22%20value%3D%22%D0%9B%D0%B5%D0%BA%D0%B0%D1%80%D1%81%D1%82%D0%B2%D0%BE%22%20style%3D%22rounded%3D1%3BwhiteSpace%3Dwrap%3Bhtml%3D1%3B%22%20vertex%3D%221%22%20parent%3D%221%22%3E%3CmxGeometry%20x%3D%22180%22%20y%3D%22280%22%20width%3D%22150%22%20height%3D%2250%22%20as%3D%22geometry%22%2F%3E%3C%2FmxCell%3E%3C%2Froot%3E%3C%2FmxGraphModel%3E&lt;/span&gt;&lt;span style=&quot;color: rgba(0, 0, 0, 0); font-family: monospace; font-size: 0px; text-align: start; background-color: rgb(236, 236, 236);&quot;&gt;%3CmxGraphModel%3E%3Croot%3E%3CmxCell%20id%3D%220%22%2F%3E%3CmxCell%20id%3D%221%22%20parent%3D%220%22%2F%3E%3CmxCell%20id%3D%222%22%20value%3D%22%D0%9B%D0%B5%D0%BA%D0%B0%D1%80%D1%81%D1%82%D0%B2%D0%BE%22%20style%3D%22rounded%3D1%3BwhiteSpace%3Dwrap%3Bhtml%3D1%3B%22%20vertex%3D%221%22%20parent%3D%221%22%3E%3CmxGeometry%20x%3D%22180%22%20y%3D%22280%22%20width%3D%22150%22%20height%3D%2250%22%20as%3D%22geometry%22%2F%3E%3C%2FmxCell%3E%3C%2Froot%3E%3C%2FmxGraphModel%3E&lt;/span&gt;" style="edgeStyle=orthogonalEdgeStyle;rounded=0;orthogonalLoop=1;jettySize=auto;html=1;endArrow=none;endFill=0;" edge="1" parent="1" source="_0isalq4gBAh9B2EabAM-51" target="_0isalq4gBAh9B2EabAM-5">
          <mxGeometry relative="1" as="geometry">
            <mxPoint x="270" y="560" as="sourcePoint" />
            <mxPoint x="270" y="490" as="targetPoint" />
          </mxGeometry>
        </mxCell>
        <mxCell id="_0isalq4gBAh9B2EabAM-56" value="Id" style="ellipse;whiteSpace=wrap;html=1;fontStyle=4" vertex="1" parent="1">
          <mxGeometry x="400" y="450" width="120" height="40" as="geometry" />
        </mxCell>
        <mxCell id="_0isalq4gBAh9B2EabAM-57" value="Лекарство" style="ellipse;whiteSpace=wrap;html=1;fontStyle=0" vertex="1" parent="1">
          <mxGeometry x="400" y="480" width="120" height="40" as="geometry" />
        </mxCell>
        <mxCell id="_0isalq4gBAh9B2EabAM-58" value="Покупатель" style="ellipse;whiteSpace=wrap;html=1;fontStyle=0" vertex="1" parent="1">
          <mxGeometry x="400" y="510" width="120" height="40" as="geometry" />
        </mxCell>
        <mxCell id="_0isalq4gBAh9B2EabAM-59" value="Количество" style="ellipse;whiteSpace=wrap;html=1;fontStyle=0" vertex="1" parent="1">
          <mxGeometry x="400" y="540" width="120" height="40" as="geometry" />
        </mxCell>
        <mxCell id="_0isalq4gBAh9B2EabAM-61" value="Филиал" style="rounded=1;whiteSpace=wrap;html=1;" vertex="1" parent="1">
          <mxGeometry x="600" y="370" width="150" height="50" as="geometry" />
        </mxCell>
        <mxCell id="_0isalq4gBAh9B2EabAM-62" value="Id" style="ellipse;whiteSpace=wrap;html=1;fontStyle=4" vertex="1" parent="1">
          <mxGeometry x="830" y="360" width="120" height="40" as="geometry" />
        </mxCell>
        <mxCell id="_0isalq4gBAh9B2EabAM-63" value="Наименование" style="ellipse;whiteSpace=wrap;html=1;fontStyle=0" vertex="1" parent="1">
          <mxGeometry x="830" y="390" width="120" height="40" as="geometry" />
        </mxCell>
        <mxCell id="_0isalq4gBAh9B2EabAM-64" value="Адрес" style="ellipse;whiteSpace=wrap;html=1;fontStyle=0" vertex="1" parent="1">
          <mxGeometry x="830" y="420" width="120" height="40" as="geometry" />
        </mxCell>
        <mxCell id="_0isalq4gBAh9B2EabAM-65" value="" style="edgeStyle=orthogonalEdgeStyle;rounded=0;orthogonalLoop=1;jettySize=auto;html=1;endArrow=none;endFill=0;" edge="1" parent="1" source="_0isalq4gBAh9B2EabAM-63" target="_0isalq4gBAh9B2EabAM-61">
          <mxGeometry relative="1" as="geometry">
            <Array as="points">
              <mxPoint x="780" y="410" />
              <mxPoint x="780" y="395" />
            </Array>
          </mxGeometry>
        </mxCell>
        <mxCell id="_0isalq4gBAh9B2EabAM-66" value="" style="rounded=0;orthogonalLoop=1;jettySize=auto;html=1;endArrow=none;endFill=0;edgeStyle=orthogonalEdgeStyle;" edge="1" parent="1" source="_0isalq4gBAh9B2EabAM-64" target="_0isalq4gBAh9B2EabAM-61">
          <mxGeometry relative="1" as="geometry">
            <mxPoint x="620" y="340" as="sourcePoint" />
            <mxPoint x="665" y="400" as="targetPoint" />
            <Array as="points">
              <mxPoint x="780" y="440" />
              <mxPoint x="780" y="395" />
            </Array>
          </mxGeometry>
        </mxCell>
        <mxCell id="_0isalq4gBAh9B2EabAM-67" value="" style="rounded=0;orthogonalLoop=1;jettySize=auto;html=1;endArrow=none;endFill=0;edgeStyle=orthogonalEdgeStyle;" edge="1" parent="1" source="_0isalq4gBAh9B2EabAM-62" target="_0isalq4gBAh9B2EabAM-61">
          <mxGeometry relative="1" as="geometry">
            <mxPoint x="670" y="350" as="sourcePoint" />
            <mxPoint x="715" y="440" as="targetPoint" />
            <Array as="points">
              <mxPoint x="780" y="380" />
              <mxPoint x="780" y="395" />
            </Array>
          </mxGeometry>
        </mxCell>
        <mxCell id="_0isalq4gBAh9B2EabAM-74" value="N" style="edgeStyle=orthogonalEdgeStyle;rounded=0;orthogonalLoop=1;jettySize=auto;html=1;endArrow=none;endFill=0;" edge="1" parent="1" source="_0isalq4gBAh9B2EabAM-83" target="_0isalq4gBAh9B2EabAM-61">
          <mxGeometry relative="1" as="geometry">
            <mxPoint x="535" y="340" as="sourcePoint" />
            <mxPoint x="625" y="370" as="targetPoint" />
            <Array as="points">
              <mxPoint x="475" y="395" />
            </Array>
          </mxGeometry>
        </mxCell>
        <mxCell id="_0isalq4gBAh9B2EabAM-75" value="Количество" style="ellipse;whiteSpace=wrap;html=1;fontStyle=0" vertex="1" parent="1">
          <mxGeometry x="320" y="170" width="120" height="40" as="geometry" />
        </mxCell>
        <mxCell id="_0isalq4gBAh9B2EabAM-76" value="" style="edgeStyle=orthogonalEdgeStyle;rounded=0;orthogonalLoop=1;jettySize=auto;html=1;endArrow=none;endFill=0;" edge="1" parent="1" source="_0isalq4gBAh9B2EabAM-75" target="_0isalq4gBAh9B2EabAM-83">
          <mxGeometry relative="1" as="geometry">
            <Array as="points">
              <mxPoint x="475" y="190" />
            </Array>
            <mxPoint x="130" y="575" as="sourcePoint" />
            <mxPoint x="200" y="440" as="targetPoint" />
          </mxGeometry>
        </mxCell>
        <mxCell id="_0isalq4gBAh9B2EabAM-79" value="Дата покупки" style="ellipse;whiteSpace=wrap;html=1;fontStyle=0" vertex="1" parent="1">
          <mxGeometry x="400" y="570" width="120" height="40" as="geometry" />
        </mxCell>
        <mxCell id="_0isalq4gBAh9B2EabAM-80" value="Дата поставки" style="ellipse;whiteSpace=wrap;html=1;fontStyle=0" vertex="1" parent="1">
          <mxGeometry x="320" y="200" width="120" height="40" as="geometry" />
        </mxCell>
        <mxCell id="_0isalq4gBAh9B2EabAM-81" value="" style="edgeStyle=orthogonalEdgeStyle;rounded=0;orthogonalLoop=1;jettySize=auto;html=1;endArrow=none;endFill=0;" edge="1" parent="1" source="_0isalq4gBAh9B2EabAM-80" target="_0isalq4gBAh9B2EabAM-83">
          <mxGeometry relative="1" as="geometry">
            <Array as="points">
              <mxPoint x="475" y="220" />
            </Array>
            <mxPoint x="170" y="645" as="sourcePoint" />
            <mxPoint x="240" y="480" as="targetPoint" />
          </mxGeometry>
        </mxCell>
        <mxCell id="_0isalq4gBAh9B2EabAM-85" value="&lt;font style=&quot;font-size: 16px;&quot;&gt;Нотация Чена&lt;/font&gt;" style="text;html=1;align=center;verticalAlign=middle;whiteSpace=wrap;rounded=0;fontSize=18;" vertex="1" parent="1">
          <mxGeometry x="270" y="120" width="130" height="30" as="geometry" />
        </mxCell>
        <mxCell id="_0isalq4gBAh9B2EabAM-86" value="" style="edgeStyle=orthogonalEdgeStyle;rounded=0;orthogonalLoop=1;jettySize=auto;html=1;endArrow=none;endFill=0;" edge="1" parent="1" source="_0isalq4gBAh9B2EabAM-51" target="_0isalq4gBAh9B2EabAM-56">
          <mxGeometry relative="1" as="geometry">
            <Array as="points">
              <mxPoint x="360" y="490" />
              <mxPoint x="360" y="470" />
            </Array>
            <mxPoint x="170" y="300" as="sourcePoint" />
            <mxPoint x="240" y="345" as="targetPoint" />
          </mxGeometry>
        </mxCell>
        <mxCell id="_0isalq4gBAh9B2EabAM-87" value="" style="edgeStyle=orthogonalEdgeStyle;rounded=0;orthogonalLoop=1;jettySize=auto;html=1;endArrow=none;endFill=0;" edge="1" parent="1" source="_0isalq4gBAh9B2EabAM-51" target="_0isalq4gBAh9B2EabAM-57">
          <mxGeometry relative="1" as="geometry">
            <Array as="points">
              <mxPoint x="360" y="490" />
              <mxPoint x="360" y="500" />
            </Array>
            <mxPoint x="380" y="520" as="sourcePoint" />
            <mxPoint x="450" y="520" as="targetPoint" />
          </mxGeometry>
        </mxCell>
        <mxCell id="_0isalq4gBAh9B2EabAM-88" value="" style="edgeStyle=orthogonalEdgeStyle;rounded=0;orthogonalLoop=1;jettySize=auto;html=1;endArrow=none;endFill=0;" edge="1" parent="1" source="_0isalq4gBAh9B2EabAM-51" target="_0isalq4gBAh9B2EabAM-58">
          <mxGeometry relative="1" as="geometry">
            <Array as="points">
              <mxPoint x="360" y="490" />
              <mxPoint x="360" y="530" />
            </Array>
            <mxPoint x="390" y="560" as="sourcePoint" />
            <mxPoint x="460" y="570" as="targetPoint" />
          </mxGeometry>
        </mxCell>
        <mxCell id="_0isalq4gBAh9B2EabAM-89" value="" style="edgeStyle=orthogonalEdgeStyle;rounded=0;orthogonalLoop=1;jettySize=auto;html=1;endArrow=none;endFill=0;" edge="1" parent="1" source="_0isalq4gBAh9B2EabAM-51" target="_0isalq4gBAh9B2EabAM-59">
          <mxGeometry relative="1" as="geometry">
            <Array as="points">
              <mxPoint x="360" y="490" />
              <mxPoint x="360" y="560" />
            </Array>
            <mxPoint x="370" y="550" as="sourcePoint" />
            <mxPoint x="440" y="590" as="targetPoint" />
          </mxGeometry>
        </mxCell>
        <mxCell id="_0isalq4gBAh9B2EabAM-90" value="" style="edgeStyle=orthogonalEdgeStyle;rounded=0;orthogonalLoop=1;jettySize=auto;html=1;endArrow=none;endFill=0;" edge="1" parent="1" source="_0isalq4gBAh9B2EabAM-51" target="_0isalq4gBAh9B2EabAM-79">
          <mxGeometry relative="1" as="geometry">
            <Array as="points">
              <mxPoint x="360" y="490" />
              <mxPoint x="360" y="590" />
            </Array>
            <mxPoint x="360" y="550" as="sourcePoint" />
            <mxPoint x="430" y="620" as="targetPoint" />
          </mxGeometry>
        </mxCell>
        <mxCell id="_0isalq4gBAh9B2EabAM-91" value="&lt;font style=&quot;font-size: 16px;&quot;&gt;Нотация Мартина&lt;/font&gt;" style="text;html=1;align=center;verticalAlign=middle;whiteSpace=wrap;rounded=0;fontSize=18;" vertex="1" parent="1">
          <mxGeometry x="1140" y="130" width="190" height="30" as="geometry" />
        </mxCell>
        <mxCell id="_0isalq4gBAh9B2EabAM-92" value="Лекарство" style="swimlane;fontStyle=0;childLayout=stackLayout;horizontal=1;startSize=30;horizontalStack=0;resizeParent=1;resizeParentMax=0;resizeLast=0;collapsible=1;marginBottom=0;whiteSpace=wrap;html=1;" vertex="1" parent="1">
          <mxGeometry x="1090" y="210" width="140" height="210" as="geometry" />
        </mxCell>
        <mxCell id="_0isalq4gBAh9B2EabAM-93" value="Id" style="text;strokeColor=none;fillColor=none;align=left;verticalAlign=middle;spacingLeft=4;spacingRight=4;overflow=hidden;points=[[0,0.5],[1,0.5]];portConstraint=eastwest;rotatable=0;whiteSpace=wrap;html=1;fontStyle=4" vertex="1" parent="_0isalq4gBAh9B2EabAM-92">
          <mxGeometry y="30" width="140" height="30" as="geometry" />
        </mxCell>
        <mxCell id="_0isalq4gBAh9B2EabAM-94" value="Наименование" style="text;strokeColor=none;fillColor=none;align=left;verticalAlign=middle;spacingLeft=4;spacingRight=4;overflow=hidden;points=[[0,0.5],[1,0.5]];portConstraint=eastwest;rotatable=0;whiteSpace=wrap;html=1;" vertex="1" parent="_0isalq4gBAh9B2EabAM-92">
          <mxGeometry y="60" width="140" height="30" as="geometry" />
        </mxCell>
        <mxCell id="_0isalq4gBAh9B2EabAM-95" value="Производитель" style="text;strokeColor=none;fillColor=none;align=left;verticalAlign=middle;spacingLeft=4;spacingRight=4;overflow=hidden;points=[[0,0.5],[1,0.5]];portConstraint=eastwest;rotatable=0;whiteSpace=wrap;html=1;" vertex="1" parent="_0isalq4gBAh9B2EabAM-92">
          <mxGeometry y="90" width="140" height="30" as="geometry" />
        </mxCell>
        <mxCell id="_0isalq4gBAh9B2EabAM-96" value="Поставщик" style="text;strokeColor=none;fillColor=none;align=left;verticalAlign=middle;spacingLeft=4;spacingRight=4;overflow=hidden;points=[[0,0.5],[1,0.5]];portConstraint=eastwest;rotatable=0;whiteSpace=wrap;html=1;" vertex="1" parent="_0isalq4gBAh9B2EabAM-92">
          <mxGeometry y="120" width="140" height="30" as="geometry" />
        </mxCell>
        <mxCell id="_0isalq4gBAh9B2EabAM-97" value="Тип" style="text;strokeColor=none;fillColor=none;align=left;verticalAlign=middle;spacingLeft=4;spacingRight=4;overflow=hidden;points=[[0,0.5],[1,0.5]];portConstraint=eastwest;rotatable=0;whiteSpace=wrap;html=1;" vertex="1" parent="_0isalq4gBAh9B2EabAM-92">
          <mxGeometry y="150" width="140" height="30" as="geometry" />
        </mxCell>
        <mxCell id="_0isalq4gBAh9B2EabAM-99" value="Возможна ли продажа без рецепта" style="text;strokeColor=none;fillColor=none;align=left;verticalAlign=middle;spacingLeft=4;spacingRight=4;overflow=hidden;points=[[0,0.5],[1,0.5]];portConstraint=eastwest;rotatable=0;whiteSpace=wrap;html=1;" vertex="1" parent="_0isalq4gBAh9B2EabAM-92">
          <mxGeometry y="180" width="140" height="30" as="geometry" />
        </mxCell>
        <mxCell id="_0isalq4gBAh9B2EabAM-100" value="Поставка" style="swimlane;fontStyle=0;childLayout=stackLayout;horizontal=1;startSize=30;horizontalStack=0;resizeParent=1;resizeParentMax=0;resizeLast=0;collapsible=1;marginBottom=0;whiteSpace=wrap;html=1;" vertex="1" parent="1">
          <mxGeometry x="1320" y="210" width="140" height="180" as="geometry" />
        </mxCell>
        <mxCell id="_0isalq4gBAh9B2EabAM-101" value="Id" style="text;strokeColor=none;fillColor=none;align=left;verticalAlign=middle;spacingLeft=4;spacingRight=4;overflow=hidden;points=[[0,0.5],[1,0.5]];portConstraint=eastwest;rotatable=0;whiteSpace=wrap;html=1;fontStyle=4" vertex="1" parent="_0isalq4gBAh9B2EabAM-100">
          <mxGeometry y="30" width="140" height="30" as="geometry" />
        </mxCell>
        <mxCell id="_0isalq4gBAh9B2EabAM-102" value="Количество" style="text;strokeColor=none;fillColor=none;align=left;verticalAlign=middle;spacingLeft=4;spacingRight=4;overflow=hidden;points=[[0,0.5],[1,0.5]];portConstraint=eastwest;rotatable=0;whiteSpace=wrap;html=1;" vertex="1" parent="_0isalq4gBAh9B2EabAM-100">
          <mxGeometry y="60" width="140" height="30" as="geometry" />
        </mxCell>
        <mxCell id="_0isalq4gBAh9B2EabAM-120" value="Цена поставки" style="text;strokeColor=none;fillColor=none;align=left;verticalAlign=middle;spacingLeft=4;spacingRight=4;overflow=hidden;points=[[0,0.5],[1,0.5]];portConstraint=eastwest;rotatable=0;whiteSpace=wrap;html=1;" vertex="1" parent="_0isalq4gBAh9B2EabAM-100">
          <mxGeometry y="90" width="140" height="30" as="geometry" />
        </mxCell>
        <mxCell id="_0isalq4gBAh9B2EabAM-128" value="Цена продажи" style="text;strokeColor=none;fillColor=none;align=left;verticalAlign=middle;spacingLeft=4;spacingRight=4;overflow=hidden;points=[[0,0.5],[1,0.5]];portConstraint=eastwest;rotatable=0;whiteSpace=wrap;html=1;" vertex="1" parent="_0isalq4gBAh9B2EabAM-100">
          <mxGeometry y="120" width="140" height="30" as="geometry" />
        </mxCell>
        <mxCell id="_0isalq4gBAh9B2EabAM-121" value="Дата поставки" style="text;strokeColor=none;fillColor=none;align=left;verticalAlign=middle;spacingLeft=4;spacingRight=4;overflow=hidden;points=[[0,0.5],[1,0.5]];portConstraint=eastwest;rotatable=0;whiteSpace=wrap;html=1;" vertex="1" parent="_0isalq4gBAh9B2EabAM-100">
          <mxGeometry y="150" width="140" height="30" as="geometry" />
        </mxCell>
        <mxCell id="_0isalq4gBAh9B2EabAM-103" value="" style="edgeStyle=orthogonalEdgeStyle;rounded=0;orthogonalLoop=1;jettySize=auto;html=1;startArrow=ERone;startFill=0;endArrow=ERzeroToMany;endFill=0;" edge="1" parent="1" source="_0isalq4gBAh9B2EabAM-104" target="_0isalq4gBAh9B2EabAM-115">
          <mxGeometry relative="1" as="geometry" />
        </mxCell>
        <mxCell id="_0isalq4gBAh9B2EabAM-104" value="Покупатель" style="swimlane;fontStyle=0;childLayout=stackLayout;horizontal=1;startSize=30;horizontalStack=0;resizeParent=1;resizeParentMax=0;resizeLast=0;collapsible=1;marginBottom=0;whiteSpace=wrap;html=1;" vertex="1" parent="1">
          <mxGeometry x="1090" y="460" width="140" height="120" as="geometry" />
        </mxCell>
        <mxCell id="_0isalq4gBAh9B2EabAM-105" value="Id" style="text;strokeColor=none;fillColor=none;align=left;verticalAlign=middle;spacingLeft=4;spacingRight=4;overflow=hidden;points=[[0,0.5],[1,0.5]];portConstraint=eastwest;rotatable=0;whiteSpace=wrap;html=1;fontStyle=4" vertex="1" parent="_0isalq4gBAh9B2EabAM-104">
          <mxGeometry y="30" width="140" height="30" as="geometry" />
        </mxCell>
        <mxCell id="_0isalq4gBAh9B2EabAM-106" value="ФИО" style="text;strokeColor=none;fillColor=none;align=left;verticalAlign=middle;spacingLeft=4;spacingRight=4;overflow=hidden;points=[[0,0.5],[1,0.5]];portConstraint=eastwest;rotatable=0;whiteSpace=wrap;html=1;" vertex="1" parent="_0isalq4gBAh9B2EabAM-104">
          <mxGeometry y="60" width="140" height="30" as="geometry" />
        </mxCell>
        <mxCell id="_0isalq4gBAh9B2EabAM-107" value="Телефон" style="text;strokeColor=none;fillColor=none;align=left;verticalAlign=middle;spacingLeft=4;spacingRight=4;overflow=hidden;points=[[0,0.5],[1,0.5]];portConstraint=eastwest;rotatable=0;whiteSpace=wrap;html=1;" vertex="1" parent="_0isalq4gBAh9B2EabAM-104">
          <mxGeometry y="90" width="140" height="30" as="geometry" />
        </mxCell>
        <mxCell id="_0isalq4gBAh9B2EabAM-109" value="Филиал аптеки" style="swimlane;fontStyle=0;childLayout=stackLayout;horizontal=1;startSize=30;horizontalStack=0;resizeParent=1;resizeParentMax=0;resizeLast=0;collapsible=1;marginBottom=0;whiteSpace=wrap;html=1;" vertex="1" parent="1">
          <mxGeometry x="1550" y="210" width="140" height="120" as="geometry" />
        </mxCell>
        <mxCell id="_0isalq4gBAh9B2EabAM-110" value="Id" style="text;strokeColor=none;fillColor=none;align=left;verticalAlign=middle;spacingLeft=4;spacingRight=4;overflow=hidden;points=[[0,0.5],[1,0.5]];portConstraint=eastwest;rotatable=0;whiteSpace=wrap;html=1;fontStyle=4" vertex="1" parent="_0isalq4gBAh9B2EabAM-109">
          <mxGeometry y="30" width="140" height="30" as="geometry" />
        </mxCell>
        <mxCell id="_0isalq4gBAh9B2EabAM-112" value="Наименование" style="text;strokeColor=none;fillColor=none;align=left;verticalAlign=middle;spacingLeft=4;spacingRight=4;overflow=hidden;points=[[0,0.5],[1,0.5]];portConstraint=eastwest;rotatable=0;whiteSpace=wrap;html=1;" vertex="1" parent="_0isalq4gBAh9B2EabAM-109">
          <mxGeometry y="60" width="140" height="30" as="geometry" />
        </mxCell>
        <mxCell id="_0isalq4gBAh9B2EabAM-111" value="Адрес" style="text;strokeColor=none;fillColor=none;align=left;verticalAlign=middle;spacingLeft=4;spacingRight=4;overflow=hidden;points=[[0,0.5],[1,0.5]];portConstraint=eastwest;rotatable=0;whiteSpace=wrap;html=1;" vertex="1" parent="_0isalq4gBAh9B2EabAM-109">
          <mxGeometry y="90" width="140" height="30" as="geometry" />
        </mxCell>
        <mxCell id="_0isalq4gBAh9B2EabAM-113" value="" style="edgeStyle=orthogonalEdgeStyle;rounded=0;orthogonalLoop=1;jettySize=auto;html=1;endArrow=ERzeroToMany;endFill=0;startArrow=ERone;startFill=0;" edge="1" parent="1" source="_0isalq4gBAh9B2EabAM-92" target="_0isalq4gBAh9B2EabAM-100">
          <mxGeometry relative="1" as="geometry" />
        </mxCell>
        <mxCell id="_0isalq4gBAh9B2EabAM-114" value="" style="edgeStyle=orthogonalEdgeStyle;rounded=0;orthogonalLoop=1;jettySize=auto;html=1;startArrow=ERone;startFill=0;endArrow=ERzeroToMany;endFill=0;" edge="1" parent="1" source="_0isalq4gBAh9B2EabAM-109" target="_0isalq4gBAh9B2EabAM-100">
          <mxGeometry relative="1" as="geometry">
            <Array as="points">
              <mxPoint x="1480" y="270" />
              <mxPoint x="1480" y="270" />
            </Array>
          </mxGeometry>
        </mxCell>
        <mxCell id="_0isalq4gBAh9B2EabAM-115" value="Покупка" style="swimlane;fontStyle=0;childLayout=stackLayout;horizontal=1;startSize=30;horizontalStack=0;resizeParent=1;resizeParentMax=0;resizeLast=0;collapsible=1;marginBottom=0;whiteSpace=wrap;html=1;" vertex="1" parent="1">
          <mxGeometry x="1320" y="475" width="140" height="90" as="geometry" />
        </mxCell>
        <mxCell id="_0isalq4gBAh9B2EabAM-116" value="Id" style="text;strokeColor=none;fillColor=none;align=left;verticalAlign=middle;spacingLeft=4;spacingRight=4;overflow=hidden;points=[[0,0.5],[1,0.5]];portConstraint=eastwest;rotatable=0;whiteSpace=wrap;html=1;fontStyle=4" vertex="1" parent="_0isalq4gBAh9B2EabAM-115">
          <mxGeometry y="30" width="140" height="30" as="geometry" />
        </mxCell>
        <mxCell id="_0isalq4gBAh9B2EabAM-117" value="Количество" style="text;strokeColor=none;fillColor=none;align=left;verticalAlign=middle;spacingLeft=4;spacingRight=4;overflow=hidden;points=[[0,0.5],[1,0.5]];portConstraint=eastwest;rotatable=0;whiteSpace=wrap;html=1;" vertex="1" parent="_0isalq4gBAh9B2EabAM-115">
          <mxGeometry y="60" width="140" height="30" as="geometry" />
        </mxCell>
        <mxCell id="_0isalq4gBAh9B2EabAM-119" value="" style="edgeStyle=orthogonalEdgeStyle;rounded=0;orthogonalLoop=1;jettySize=auto;html=1;endArrow=ERone;endFill=0;startArrow=ERzeroToMany;startFill=0;" edge="1" parent="1" source="_0isalq4gBAh9B2EabAM-115" target="_0isalq4gBAh9B2EabAM-100">
          <mxGeometry relative="1" as="geometry">
            <mxPoint x="1270" y="375" as="sourcePoint" />
            <mxPoint x="1360" y="300" as="targetPoint" />
          </mxGeometry>
        </mxCell>
        <mxCell id="_0isalq4gBAh9B2EabAM-122" value="Поставщик" style="swimlane;fontStyle=0;childLayout=stackLayout;horizontal=1;startSize=30;horizontalStack=0;resizeParent=1;resizeParentMax=0;resizeLast=0;collapsible=1;marginBottom=0;whiteSpace=wrap;html=1;" vertex="1" parent="1">
          <mxGeometry x="1550" y="380" width="140" height="150" as="geometry" />
        </mxCell>
        <mxCell id="_0isalq4gBAh9B2EabAM-123" value="Id" style="text;strokeColor=none;fillColor=none;align=left;verticalAlign=middle;spacingLeft=4;spacingRight=4;overflow=hidden;points=[[0,0.5],[1,0.5]];portConstraint=eastwest;rotatable=0;whiteSpace=wrap;html=1;fontStyle=4" vertex="1" parent="_0isalq4gBAh9B2EabAM-122">
          <mxGeometry y="30" width="140" height="30" as="geometry" />
        </mxCell>
        <mxCell id="_0isalq4gBAh9B2EabAM-125" value="Наименование" style="text;strokeColor=none;fillColor=none;align=left;verticalAlign=middle;spacingLeft=4;spacingRight=4;overflow=hidden;points=[[0,0.5],[1,0.5]];portConstraint=eastwest;rotatable=0;whiteSpace=wrap;html=1;" vertex="1" parent="_0isalq4gBAh9B2EabAM-122">
          <mxGeometry y="60" width="140" height="30" as="geometry" />
        </mxCell>
        <mxCell id="_0isalq4gBAh9B2EabAM-126" value="ИНН" style="text;strokeColor=none;fillColor=none;align=left;verticalAlign=middle;spacingLeft=4;spacingRight=4;overflow=hidden;points=[[0,0.5],[1,0.5]];portConstraint=eastwest;rotatable=0;whiteSpace=wrap;html=1;" vertex="1" parent="_0isalq4gBAh9B2EabAM-122">
          <mxGeometry y="90" width="140" height="30" as="geometry" />
        </mxCell>
        <mxCell id="_0isalq4gBAh9B2EabAM-124" value="Адрес" style="text;strokeColor=none;fillColor=none;align=left;verticalAlign=middle;spacingLeft=4;spacingRight=4;overflow=hidden;points=[[0,0.5],[1,0.5]];portConstraint=eastwest;rotatable=0;whiteSpace=wrap;html=1;" vertex="1" parent="_0isalq4gBAh9B2EabAM-122">
          <mxGeometry y="120" width="140" height="30" as="geometry" />
        </mxCell>
        <mxCell id="_0isalq4gBAh9B2EabAM-127" value="" style="edgeStyle=orthogonalEdgeStyle;rounded=0;orthogonalLoop=1;jettySize=auto;html=1;startArrow=ERone;startFill=0;endArrow=ERzeroToMany;endFill=0;" edge="1" parent="1" source="_0isalq4gBAh9B2EabAM-122" target="_0isalq4gBAh9B2EabAM-100">
          <mxGeometry relative="1" as="geometry">
            <mxPoint x="1590" y="280" as="sourcePoint" />
            <mxPoint x="1500" y="295" as="targetPoint" />
            <Array as="points">
              <mxPoint x="1500" y="455" />
              <mxPoint x="1500" y="320" />
            </Array>
          </mxGeometry>
        </mxCell>
      </root>
    </mxGraphModel>
  </diagram>
</mxfile>
